<svg width="20" height="20" viewBox="0 0 20 20" fill="none" xmlns="http://www.w3.org/2000/svg">
<path d="M15.7567 7.73581V6.58998C15.7567 4.11498 15.1608 0.833313 10 0.833313C4.83917 0.833313 4.24333 4.11498 4.24333 6.58998V7.73581C1.67667 8.05665 0.833332 9.35831 0.833332 12.5575V14.2625C0.833332 18.0208 1.97917 19.1666 5.7375 19.1666H14.2625C18.0208 19.1666 19.1667 18.0208 19.1667 14.2625V12.5575C19.1667 9.35831 18.3233 8.05665 15.7567 7.73581ZM10 16.1783C8.46917 16.1783 7.23166 14.9316 7.23166 13.41C7.23166 11.8791 8.47833 10.6416 10 10.6416C11.5217 10.6416 12.7683 11.8883 12.7683 13.41C12.7683 14.9408 11.5308 16.1783 10 16.1783ZM5.7375 7.65331C5.66417 7.65331 5.6 7.65331 5.52667 7.65331V6.58998C5.52667 3.90415 6.2875 2.11665 10 2.11665C13.7125 2.11665 14.4733 3.90415 14.4733 6.58998V7.66248C14.4 7.66248 14.3358 7.66248 14.2625 7.66248H5.7375V7.65331Z" fill="#64748B"/>
</svg>
