<svg width="22" height="22" viewBox="0 0 22 22" fill="none" xmlns="http://www.w3.org/2000/svg">
<path d="M19.4792 8.3875C17.3617 5.06 14.2633 3.14417 11 3.14417C9.36834 3.14417 7.78251 3.62083 6.33418 4.51C4.88584 5.40833 3.58418 6.71916 2.52084 8.3875C1.60418 9.82666 1.60418 12.1642 2.52084 13.6033C4.63834 16.94 7.73668 18.8467 11 18.8467C12.6317 18.8467 14.2175 18.37 15.6658 17.4808C17.1142 16.5825 18.4158 15.2717 19.4792 13.6033C20.3958 12.1733 20.3958 9.82666 19.4792 8.3875ZM11 14.7033C8.94668 14.7033 7.29668 13.0442 7.29668 11C7.29668 8.95583 8.94668 7.29666 11 7.29666C13.0533 7.29666 14.7033 8.95583 14.7033 11C14.7033 13.0442 13.0533 14.7033 11 14.7033Z" fill="#64748B"/>
<path d="M11 8.37836C9.56085 8.37836 8.38751 9.55169 8.38751 11C8.38751 12.4392 9.56085 13.6125 11 13.6125C12.4392 13.6125 13.6217 12.4392 13.6217 11C13.6217 9.56086 12.4392 8.37836 11 8.37836Z" fill="#64748B"/>
</svg>
